#!OML:ASF X:\für Bonn\!DataBase\2005_08_10_Bjorn_Final\c3d\bjorn.ASF
:FULLY-SPECIFIED
:DEGREES
78
root 0.155285 8.78347 4.14969 -185.811 -3.73301 179.374
lowerback 44.9332 1.99347 7.43997
upperback 15.7723 -1.2152 0.478249
thorax -2.9431 -2.97387 -2.65086
lowerneck -20.3783 -1.2015 2.11347
upperneck -4.47927 -3.19217 0.707372
head 2.00581 -2.07173 -0.406295
rclavicle -9.54166e-015 -1.59028e-014
rhumerus 82.5016 -11.2022 -49.2658
rradius 17.4258
rwrist 26.055
rhand -11.6124 6.79998
rfingers 7.12502
rthumb 14.4305 -22.6783
lclavicle -9.54166e-015 -1.59028e-014
lhumerus 94.0947 2.11989 69.8019
lradius 8.76596
lwrist -51.8183
lhand -22.5208 -9.20823
lfingers 7.12502
lthumb 3.90586 20.7357
rfemur -80.0198 -77.7258 3.15795
rtibia 148.194
rfoot -52.6542 44.7367
rtoes -35.8937
lfemur -82.4838 25.4884 -22.855
ltibia 149.581
lfoot -36.7961 -3.98014
ltoes -39.2532
79
root 0.151492 8.72294 4.18126 -185.815 -3.72073 179.549
lowerback 45.5241 1.91622 7.69066
upperback 15.7728 -1.25407 0.515625
thorax -3.07622 -3.02103 -2.7012
lowerneck -20.408 -1.2049 1.90096
upperneck -4.50968 -3.16125 0.972364
head 2.0079 -2.04696 -0.280446
rclavicle -3.18055e-015 9.14409e-015
rhumerus 82.5172 -11.2478 -49.6117
rradius 17.5119
rwrist 26.0249
rhand -11.3907 6.88164
rfingers 7.12502
rthumb 14.6441 -22.5813
lclavicle -3.18055e-015 9.14409e-015
lhumerus 93.7423 1.91592 69.7186
lradius 9.11027
lwrist -51.1605
lhand -22.2683 -9.38686
lfingers 7.12502
lthumb 4.14964 20.5525
rfemur -81.0642 -78.9085 3.98436
rtibia 148.5
rfoot -53.3052 45.021
rtoes -35.7715
lfemur -83.105 25.5167 -22.9249
ltibia 149.948
lfoot -36.8053 -3.85435
ltoes -39.0684
80
root 0.146595 8.68474 4.21344 -185.757 -3.69921 179.672
lowerback 46.1181 1.85086 7.88657
upperback 15.7437 -1.28265 0.547927
thorax -3.24216 -3.06147 -2.7309
lowerneck -20.3658 -1.2094 1.66804
upperneck -4.56458 -3.12285 1.25932
head 1.98975 -2.01693 -0.141901
rclavicle 3.57812e-015 -6.36111e-015
rhumerus 82.3774 -11.2543 -49.4671
rradius 17.673
rwrist 25.4689
rhand -11.6571 6.87852
rfingers 7.12502
rthumb 14.3875 -22.6029
lclavicle 3.57812e-015 -6.36111e-015
lhumerus 93.4465 1.73385 69.6593
lradius 9.36217
lwrist -50.9387
lhand -21.999 -9.60565
lfingers 7.12502
lthumb 4.40969 20.3284
rfemur -82.7739 -79.3522 5.59206
rtibia 148.641
rfoot -53.4873 45.1855
rtoes -35.5436
lfemur -83.6601 25.5552 -23.0665
ltibia 150.148
lfoot -36.7761 -3.88167
ltoes -38.5739
81
root 0.142201 8.66947 4.24539 -185.585 -3.69176 179.701
lowerback 46.6412 1.7947 7.97881
upperback 15.6861 -1.32032 0.555919
thorax -3.42726 -3.09948 -2.73155
lowerneck -20.1416 -1.19556 1.59678
upperneck -4.72659 -3.08493 1.34595
head 1.89692 -1.99863 -0.09296
rclavicle 4.37326e-015 -4.77083e-015
rhumerus 82.1905 -11.2184 -49.1808
rradius 17.8067
rwrist 24.7767
rhand -11.8177 6.91388
rfingers 7.12502
rthumb 14.2327 -22.5784
lclavicle 4.37326e-015 -4.77083e-015
lhumerus 93.1928 1.58935 69.5978
lradius 9.51925
lwrist -51.199
lhand -21.8119 -9.7265
lfingers 7.12502
lthumb 4.59043 20.2038
rfemur -85.1003 -79.188 7.83413
rtibia 148.644
rfoot -53.2644 45.3326
rtoes -35.222
lfemur -84.1621 25.5815 -23.3327
ltibia 150.154
lfoot -36.7526 -4.11018
ltoes -37.8858
82
root 0.13752 8.67444 4.27872 -185.328 -3.68141 179.657
lowerback 47.0826 1.76108 7.99213
upperback 15.6106 -1.34602 0.547217
thorax -3.61547 -3.12501 -2.71708
lowerneck -19.7843 -1.17205 1.63584
upperneck -4.95765 -3.04958 1.31457
head 1.7539 -1.9879 -0.0990627
rclavicle 1.31198e-014 -2.78299e-014
rhumerus 81.8812 -11.1233 -48.5062
rradius 17.9196
rwrist 23.5879
rhand -12.2934 6.86832
rfingers 7.12502
rthumb 13.7743 -22.6557
lclavicle 1.31198e-014 -2.78299e-014
lhumerus 92.9571 1.44809 69.5417
lradius 9.57219
lwrist -51.4073
lhand -21.9948 -9.72186
lfingers 7.12502
lthumb 4.41378 20.2121
rfemur -87.7227 -78.3328 10.4388
rtibia 148.505
rfoot -52.6189 45.3109
rtoes -34.9441
lfemur -84.6722 25.6088 -23.7369
ltibia 150.002
lfoot -36.6377 -4.46593
ltoes -36.9337
